<mxfile host="Electron" agent="Mozilla/5.0 (Windows NT 10.0; Win64; x64) AppleWebKit/537.36 (KHTML, like Gecko) draw.io/27.0.5 Chrome/134.0.6998.205 Electron/35.3.0 Safari/537.36" version="27.0.5">
  <diagram name="Page-1" id="_LyQdvw29U-DuclSRUhj">
    <mxGraphModel dx="1796" dy="572" grid="1" gridSize="10" guides="1" tooltips="1" connect="1" arrows="1" fold="1" page="1" pageScale="1" pageWidth="850" pageHeight="1100" math="0" shadow="0">
      <root>
        <mxCell id="0" />
        <mxCell id="1" parent="0" />
        <mxCell id="QRgpXw_hNwnxMptsKGu3-5" value="MealBuilder" style="swimlane;fontStyle=1;align=center;verticalAlign=top;childLayout=stackLayout;horizontal=1;startSize=26;horizontalStack=0;resizeParent=1;resizeParentMax=0;resizeLast=0;collapsible=1;marginBottom=0;whiteSpace=wrap;html=1;fillColor=#E6E6E6;" vertex="1" parent="1">
          <mxGeometry x="-330" y="99" width="210" height="78" as="geometry" />
        </mxCell>
        <mxCell id="QRgpXw_hNwnxMptsKGu3-6" value="+&amp;nbsp;PrepareVegMeal()" style="text;strokeColor=none;fillColor=none;align=left;verticalAlign=top;spacingLeft=4;spacingRight=4;overflow=hidden;rotatable=0;points=[[0,0.5],[1,0.5]];portConstraint=eastwest;whiteSpace=wrap;html=1;" vertex="1" parent="QRgpXw_hNwnxMptsKGu3-5">
          <mxGeometry y="26" width="210" height="26" as="geometry" />
        </mxCell>
        <mxCell id="QRgpXw_hNwnxMptsKGu3-91" value="+ PrepareNonVegMeal()" style="text;strokeColor=none;fillColor=none;align=left;verticalAlign=top;spacingLeft=4;spacingRight=4;overflow=hidden;rotatable=0;points=[[0,0.5],[1,0.5]];portConstraint=eastwest;whiteSpace=wrap;html=1;" vertex="1" parent="QRgpXw_hNwnxMptsKGu3-5">
          <mxGeometry y="52" width="210" height="26" as="geometry" />
        </mxCell>
        <mxCell id="QRgpXw_hNwnxMptsKGu3-12" value="Client" style="rounded=0;whiteSpace=wrap;html=1;fillColor=#dae8fc;strokeColor=#6c8ebf;" vertex="1" parent="1">
          <mxGeometry x="-485" y="108" width="120" height="60" as="geometry" />
        </mxCell>
        <mxCell id="QRgpXw_hNwnxMptsKGu3-13" value="calls" style="html=1;verticalAlign=bottom;endArrow=block;endSize=8;curved=0;rounded=0;exitX=0.996;exitY=0.4;exitDx=0;exitDy=0;endFill=0;exitPerimeter=0;" edge="1" parent="1" source="QRgpXw_hNwnxMptsKGu3-12" target="QRgpXw_hNwnxMptsKGu3-5">
          <mxGeometry x="-0.2248" relative="1" as="geometry">
            <mxPoint x="-337" y="62" as="sourcePoint" />
            <mxPoint x="-280.47" y="70.52800000000002" as="targetPoint" />
            <mxPoint as="offset" />
          </mxGeometry>
        </mxCell>
        <mxCell id="QRgpXw_hNwnxMptsKGu3-98" style="edgeStyle=orthogonalEdgeStyle;rounded=0;orthogonalLoop=1;jettySize=auto;html=1;exitX=0.5;exitY=0;exitDx=0;exitDy=0;endArrow=diamondThin;endFill=0;strokeWidth=2;" edge="1" parent="1" source="QRgpXw_hNwnxMptsKGu3-17">
          <mxGeometry relative="1" as="geometry">
            <mxPoint x="90" y="260" as="targetPoint" />
          </mxGeometry>
        </mxCell>
        <mxCell id="QRgpXw_hNwnxMptsKGu3-17" value="IItem (Product)" style="swimlane;fontStyle=1;align=center;verticalAlign=top;childLayout=stackLayout;horizontal=1;startSize=26;horizontalStack=0;resizeParent=1;resizeParentMax=0;resizeLast=0;collapsible=1;marginBottom=0;whiteSpace=wrap;html=1;fillColor=#E6E6E6;" vertex="1" parent="1">
          <mxGeometry x="-50" y="390" width="230" height="112" as="geometry" />
        </mxCell>
        <mxCell id="QRgpXw_hNwnxMptsKGu3-18" value="" style="line;strokeWidth=1;fillColor=none;align=left;verticalAlign=middle;spacingTop=-1;spacingLeft=3;spacingRight=3;rotatable=0;labelPosition=right;points=[];portConstraint=eastwest;strokeColor=inherit;" vertex="1" parent="QRgpXw_hNwnxMptsKGu3-17">
          <mxGeometry y="26" width="230" height="8" as="geometry" />
        </mxCell>
        <mxCell id="QRgpXw_hNwnxMptsKGu3-19" value="+ Name();" style="text;strokeColor=none;fillColor=none;align=left;verticalAlign=top;spacingLeft=4;spacingRight=4;overflow=hidden;rotatable=0;points=[[0,0.5],[1,0.5]];portConstraint=eastwest;whiteSpace=wrap;html=1;" vertex="1" parent="QRgpXw_hNwnxMptsKGu3-17">
          <mxGeometry y="34" width="230" height="26" as="geometry" />
        </mxCell>
        <mxCell id="QRgpXw_hNwnxMptsKGu3-20" value="&amp;nbsp;+ IPacking Packing()" style="text;strokeColor=none;fillColor=none;align=left;verticalAlign=top;spacingLeft=4;spacingRight=4;overflow=hidden;rotatable=0;points=[[0,0.5],[1,0.5]];portConstraint=eastwest;whiteSpace=wrap;html=1;" vertex="1" parent="QRgpXw_hNwnxMptsKGu3-17">
          <mxGeometry y="60" width="230" height="26" as="geometry" />
        </mxCell>
        <mxCell id="QRgpXw_hNwnxMptsKGu3-21" value="&amp;nbsp;+ Price()" style="text;strokeColor=none;fillColor=none;align=left;verticalAlign=top;spacingLeft=4;spacingRight=4;overflow=hidden;rotatable=0;points=[[0,0.5],[1,0.5]];portConstraint=eastwest;whiteSpace=wrap;html=1;" vertex="1" parent="QRgpXw_hNwnxMptsKGu3-17">
          <mxGeometry y="86" width="230" height="26" as="geometry" />
        </mxCell>
        <mxCell id="QRgpXw_hNwnxMptsKGu3-23" value="IPacking" style="swimlane;fontStyle=1;align=center;verticalAlign=top;childLayout=stackLayout;horizontal=1;startSize=26;horizontalStack=0;resizeParent=1;resizeParentMax=0;resizeLast=0;collapsible=1;marginBottom=0;whiteSpace=wrap;html=1;fillColor=#E6E6E6;" vertex="1" parent="1">
          <mxGeometry x="-10" y="950" width="140" height="60" as="geometry" />
        </mxCell>
        <mxCell id="QRgpXw_hNwnxMptsKGu3-24" value="" style="line;strokeWidth=1;fillColor=none;align=left;verticalAlign=middle;spacingTop=-1;spacingLeft=3;spacingRight=3;rotatable=0;labelPosition=right;points=[];portConstraint=eastwest;strokeColor=inherit;" vertex="1" parent="QRgpXw_hNwnxMptsKGu3-23">
          <mxGeometry y="26" width="140" height="8" as="geometry" />
        </mxCell>
        <mxCell id="QRgpXw_hNwnxMptsKGu3-25" value="+ Pack()" style="text;strokeColor=none;fillColor=none;align=left;verticalAlign=top;spacingLeft=4;spacingRight=4;overflow=hidden;rotatable=0;points=[[0,0.5],[1,0.5]];portConstraint=eastwest;whiteSpace=wrap;html=1;" vertex="1" parent="QRgpXw_hNwnxMptsKGu3-23">
          <mxGeometry y="34" width="140" height="26" as="geometry" />
        </mxCell>
        <mxCell id="QRgpXw_hNwnxMptsKGu3-28" value="Bottle" style="swimlane;fontStyle=1;align=center;verticalAlign=top;childLayout=stackLayout;horizontal=1;startSize=26;horizontalStack=0;resizeParent=1;resizeParentMax=0;resizeLast=0;collapsible=1;marginBottom=0;whiteSpace=wrap;html=1;fillColor=#E6E6E6;" vertex="1" parent="1">
          <mxGeometry x="15" y="1070" width="90" height="60" as="geometry" />
        </mxCell>
        <mxCell id="QRgpXw_hNwnxMptsKGu3-29" value="" style="line;strokeWidth=1;fillColor=none;align=left;verticalAlign=middle;spacingTop=-1;spacingLeft=3;spacingRight=3;rotatable=0;labelPosition=right;points=[];portConstraint=eastwest;strokeColor=inherit;" vertex="1" parent="QRgpXw_hNwnxMptsKGu3-28">
          <mxGeometry y="26" width="90" height="8" as="geometry" />
        </mxCell>
        <mxCell id="QRgpXw_hNwnxMptsKGu3-30" value="+ Pack()" style="text;strokeColor=none;fillColor=none;align=left;verticalAlign=top;spacingLeft=4;spacingRight=4;overflow=hidden;rotatable=0;points=[[0,0.5],[1,0.5]];portConstraint=eastwest;whiteSpace=wrap;html=1;" vertex="1" parent="QRgpXw_hNwnxMptsKGu3-28">
          <mxGeometry y="34" width="90" height="26" as="geometry" />
        </mxCell>
        <mxCell id="QRgpXw_hNwnxMptsKGu3-31" style="edgeStyle=orthogonalEdgeStyle;rounded=0;orthogonalLoop=1;jettySize=auto;html=1;exitX=0.5;exitY=0;exitDx=0;exitDy=0;entryX=0.504;entryY=1.038;entryDx=0;entryDy=0;entryPerimeter=0;endArrow=block;endFill=0;" edge="1" parent="1" source="QRgpXw_hNwnxMptsKGu3-28" target="QRgpXw_hNwnxMptsKGu3-25">
          <mxGeometry relative="1" as="geometry" />
        </mxCell>
        <mxCell id="QRgpXw_hNwnxMptsKGu3-32" value="implements" style="edgeLabel;html=1;align=center;verticalAlign=middle;resizable=0;points=[];" vertex="1" connectable="0" parent="QRgpXw_hNwnxMptsKGu3-31">
          <mxGeometry x="-0.0326" relative="1" as="geometry">
            <mxPoint as="offset" />
          </mxGeometry>
        </mxCell>
        <mxCell id="QRgpXw_hNwnxMptsKGu3-33" value="&amp;lt;abstract&amp;gt; Burger" style="swimlane;fontStyle=1;align=center;verticalAlign=top;childLayout=stackLayout;horizontal=1;startSize=26;horizontalStack=0;resizeParent=1;resizeParentMax=0;resizeLast=0;collapsible=1;marginBottom=0;whiteSpace=wrap;html=1;fillColor=#E6E6E6;" vertex="1" parent="1">
          <mxGeometry x="-150" y="580" width="150" height="112" as="geometry" />
        </mxCell>
        <mxCell id="QRgpXw_hNwnxMptsKGu3-34" value="" style="line;strokeWidth=1;fillColor=none;align=left;verticalAlign=middle;spacingTop=-1;spacingLeft=3;spacingRight=3;rotatable=0;labelPosition=right;points=[];portConstraint=eastwest;strokeColor=inherit;" vertex="1" parent="QRgpXw_hNwnxMptsKGu3-33">
          <mxGeometry y="26" width="150" height="8" as="geometry" />
        </mxCell>
        <mxCell id="QRgpXw_hNwnxMptsKGu3-35" value="+ Name();" style="text;strokeColor=none;fillColor=none;align=left;verticalAlign=top;spacingLeft=4;spacingRight=4;overflow=hidden;rotatable=0;points=[[0,0.5],[1,0.5]];portConstraint=eastwest;whiteSpace=wrap;html=1;" vertex="1" parent="QRgpXw_hNwnxMptsKGu3-33">
          <mxGeometry y="34" width="150" height="26" as="geometry" />
        </mxCell>
        <mxCell id="QRgpXw_hNwnxMptsKGu3-36" value="&amp;nbsp;+ IPacking Packing()" style="text;strokeColor=none;fillColor=none;align=left;verticalAlign=top;spacingLeft=4;spacingRight=4;overflow=hidden;rotatable=0;points=[[0,0.5],[1,0.5]];portConstraint=eastwest;whiteSpace=wrap;html=1;" vertex="1" parent="QRgpXw_hNwnxMptsKGu3-33">
          <mxGeometry y="60" width="150" height="26" as="geometry" />
        </mxCell>
        <mxCell id="QRgpXw_hNwnxMptsKGu3-37" value="&amp;nbsp;+ Price()" style="text;strokeColor=none;fillColor=none;align=left;verticalAlign=top;spacingLeft=4;spacingRight=4;overflow=hidden;rotatable=0;points=[[0,0.5],[1,0.5]];portConstraint=eastwest;whiteSpace=wrap;html=1;" vertex="1" parent="QRgpXw_hNwnxMptsKGu3-33">
          <mxGeometry y="86" width="150" height="26" as="geometry" />
        </mxCell>
        <mxCell id="QRgpXw_hNwnxMptsKGu3-39" style="rounded=0;orthogonalLoop=1;jettySize=auto;html=1;exitX=0.5;exitY=0;exitDx=0;exitDy=0;entryX=0.522;entryY=0.923;entryDx=0;entryDy=0;entryPerimeter=0;endArrow=block;endFill=0;" edge="1" parent="1" source="QRgpXw_hNwnxMptsKGu3-33" target="QRgpXw_hNwnxMptsKGu3-21">
          <mxGeometry relative="1" as="geometry">
            <mxPoint x="320" y="580" as="sourcePoint" />
            <mxPoint x="321" y="461" as="targetPoint" />
          </mxGeometry>
        </mxCell>
        <mxCell id="QRgpXw_hNwnxMptsKGu3-40" value="implements" style="edgeLabel;html=1;align=center;verticalAlign=middle;resizable=0;points=[];" vertex="1" connectable="0" parent="QRgpXw_hNwnxMptsKGu3-39">
          <mxGeometry x="-0.0326" relative="1" as="geometry">
            <mxPoint as="offset" />
          </mxGeometry>
        </mxCell>
        <mxCell id="QRgpXw_hNwnxMptsKGu3-41" value="ChickenBurger" style="swimlane;fontStyle=1;align=center;verticalAlign=top;childLayout=stackLayout;horizontal=1;startSize=26;horizontalStack=0;resizeParent=1;resizeParentMax=0;resizeLast=0;collapsible=1;marginBottom=0;whiteSpace=wrap;html=1;fillColor=#E6E6E6;" vertex="1" parent="1">
          <mxGeometry x="-210" y="760" width="140" height="112" as="geometry" />
        </mxCell>
        <mxCell id="QRgpXw_hNwnxMptsKGu3-42" value="" style="line;strokeWidth=1;fillColor=none;align=left;verticalAlign=middle;spacingTop=-1;spacingLeft=3;spacingRight=3;rotatable=0;labelPosition=right;points=[];portConstraint=eastwest;strokeColor=inherit;" vertex="1" parent="QRgpXw_hNwnxMptsKGu3-41">
          <mxGeometry y="26" width="140" height="8" as="geometry" />
        </mxCell>
        <mxCell id="QRgpXw_hNwnxMptsKGu3-43" value="+ Name();" style="text;strokeColor=none;fillColor=none;align=left;verticalAlign=top;spacingLeft=4;spacingRight=4;overflow=hidden;rotatable=0;points=[[0,0.5],[1,0.5]];portConstraint=eastwest;whiteSpace=wrap;html=1;" vertex="1" parent="QRgpXw_hNwnxMptsKGu3-41">
          <mxGeometry y="34" width="140" height="26" as="geometry" />
        </mxCell>
        <mxCell id="QRgpXw_hNwnxMptsKGu3-44" value="&amp;nbsp;+ IPacking Packing()" style="text;strokeColor=none;fillColor=none;align=left;verticalAlign=top;spacingLeft=4;spacingRight=4;overflow=hidden;rotatable=0;points=[[0,0.5],[1,0.5]];portConstraint=eastwest;whiteSpace=wrap;html=1;" vertex="1" parent="QRgpXw_hNwnxMptsKGu3-41">
          <mxGeometry y="60" width="140" height="26" as="geometry" />
        </mxCell>
        <mxCell id="QRgpXw_hNwnxMptsKGu3-45" value="&amp;nbsp;+ Price()" style="text;strokeColor=none;fillColor=none;align=left;verticalAlign=top;spacingLeft=4;spacingRight=4;overflow=hidden;rotatable=0;points=[[0,0.5],[1,0.5]];portConstraint=eastwest;whiteSpace=wrap;html=1;" vertex="1" parent="QRgpXw_hNwnxMptsKGu3-41">
          <mxGeometry y="86" width="140" height="26" as="geometry" />
        </mxCell>
        <mxCell id="QRgpXw_hNwnxMptsKGu3-46" style="edgeStyle=orthogonalEdgeStyle;rounded=0;orthogonalLoop=1;jettySize=auto;html=1;exitX=0.5;exitY=0;exitDx=0;exitDy=0;entryX=0.452;entryY=0.981;entryDx=0;entryDy=0;entryPerimeter=0;endArrow=classic;endFill=1;" edge="1" parent="1" source="QRgpXw_hNwnxMptsKGu3-41" target="QRgpXw_hNwnxMptsKGu3-37">
          <mxGeometry relative="1" as="geometry" />
        </mxCell>
        <mxCell id="QRgpXw_hNwnxMptsKGu3-47" value="inherits" style="edgeLabel;html=1;align=center;verticalAlign=middle;resizable=0;points=[];" vertex="1" connectable="0" parent="QRgpXw_hNwnxMptsKGu3-46">
          <mxGeometry x="0.0636" y="2" relative="1" as="geometry">
            <mxPoint as="offset" />
          </mxGeometry>
        </mxCell>
        <mxCell id="QRgpXw_hNwnxMptsKGu3-48" value="&amp;lt;abstract&amp;gt; ColdDring" style="swimlane;fontStyle=1;align=center;verticalAlign=top;childLayout=stackLayout;horizontal=1;startSize=26;horizontalStack=0;resizeParent=1;resizeParentMax=0;resizeLast=0;collapsible=1;marginBottom=0;whiteSpace=wrap;html=1;fillColor=#E6E6E6;" vertex="1" parent="1">
          <mxGeometry x="90" y="580" width="180" height="112" as="geometry" />
        </mxCell>
        <mxCell id="QRgpXw_hNwnxMptsKGu3-49" value="" style="line;strokeWidth=1;fillColor=none;align=left;verticalAlign=middle;spacingTop=-1;spacingLeft=3;spacingRight=3;rotatable=0;labelPosition=right;points=[];portConstraint=eastwest;strokeColor=inherit;" vertex="1" parent="QRgpXw_hNwnxMptsKGu3-48">
          <mxGeometry y="26" width="180" height="8" as="geometry" />
        </mxCell>
        <mxCell id="QRgpXw_hNwnxMptsKGu3-50" value="+ Name();" style="text;strokeColor=none;fillColor=none;align=left;verticalAlign=top;spacingLeft=4;spacingRight=4;overflow=hidden;rotatable=0;points=[[0,0.5],[1,0.5]];portConstraint=eastwest;whiteSpace=wrap;html=1;" vertex="1" parent="QRgpXw_hNwnxMptsKGu3-48">
          <mxGeometry y="34" width="180" height="26" as="geometry" />
        </mxCell>
        <mxCell id="QRgpXw_hNwnxMptsKGu3-51" value="&amp;nbsp;+ IPacking Packing()" style="text;strokeColor=none;fillColor=none;align=left;verticalAlign=top;spacingLeft=4;spacingRight=4;overflow=hidden;rotatable=0;points=[[0,0.5],[1,0.5]];portConstraint=eastwest;whiteSpace=wrap;html=1;" vertex="1" parent="QRgpXw_hNwnxMptsKGu3-48">
          <mxGeometry y="60" width="180" height="26" as="geometry" />
        </mxCell>
        <mxCell id="QRgpXw_hNwnxMptsKGu3-52" value="&amp;nbsp;+ Price()" style="text;strokeColor=none;fillColor=none;align=left;verticalAlign=top;spacingLeft=4;spacingRight=4;overflow=hidden;rotatable=0;points=[[0,0.5],[1,0.5]];portConstraint=eastwest;whiteSpace=wrap;html=1;" vertex="1" parent="QRgpXw_hNwnxMptsKGu3-48">
          <mxGeometry y="86" width="180" height="26" as="geometry" />
        </mxCell>
        <mxCell id="QRgpXw_hNwnxMptsKGu3-53" style="rounded=0;orthogonalLoop=1;jettySize=auto;html=1;exitX=0.5;exitY=0;exitDx=0;exitDy=0;entryX=0.563;entryY=1.038;entryDx=0;entryDy=0;entryPerimeter=0;endArrow=block;endFill=0;" edge="1" parent="1" source="QRgpXw_hNwnxMptsKGu3-48" target="QRgpXw_hNwnxMptsKGu3-21">
          <mxGeometry relative="1" as="geometry">
            <mxPoint x="-25" y="590" as="sourcePoint" />
            <mxPoint x="80" y="510" as="targetPoint" />
          </mxGeometry>
        </mxCell>
        <mxCell id="QRgpXw_hNwnxMptsKGu3-54" value="implements" style="edgeLabel;html=1;align=center;verticalAlign=middle;resizable=0;points=[];" vertex="1" connectable="0" parent="QRgpXw_hNwnxMptsKGu3-53">
          <mxGeometry x="-0.0326" relative="1" as="geometry">
            <mxPoint as="offset" />
          </mxGeometry>
        </mxCell>
        <mxCell id="QRgpXw_hNwnxMptsKGu3-55" value="Coke" style="swimlane;fontStyle=1;align=center;verticalAlign=top;childLayout=stackLayout;horizontal=1;startSize=26;horizontalStack=0;resizeParent=1;resizeParentMax=0;resizeLast=0;collapsible=1;marginBottom=0;whiteSpace=wrap;html=1;fillColor=#E6E6E6;" vertex="1" parent="1">
          <mxGeometry x="110" y="760" width="130" height="112" as="geometry" />
        </mxCell>
        <mxCell id="QRgpXw_hNwnxMptsKGu3-56" value="" style="line;strokeWidth=1;fillColor=none;align=left;verticalAlign=middle;spacingTop=-1;spacingLeft=3;spacingRight=3;rotatable=0;labelPosition=right;points=[];portConstraint=eastwest;strokeColor=inherit;" vertex="1" parent="QRgpXw_hNwnxMptsKGu3-55">
          <mxGeometry y="26" width="130" height="8" as="geometry" />
        </mxCell>
        <mxCell id="QRgpXw_hNwnxMptsKGu3-57" value="+ Name();" style="text;strokeColor=none;fillColor=none;align=left;verticalAlign=top;spacingLeft=4;spacingRight=4;overflow=hidden;rotatable=0;points=[[0,0.5],[1,0.5]];portConstraint=eastwest;whiteSpace=wrap;html=1;" vertex="1" parent="QRgpXw_hNwnxMptsKGu3-55">
          <mxGeometry y="34" width="130" height="26" as="geometry" />
        </mxCell>
        <mxCell id="QRgpXw_hNwnxMptsKGu3-58" value="&amp;nbsp;+ IPacking Packing()" style="text;strokeColor=none;fillColor=none;align=left;verticalAlign=top;spacingLeft=4;spacingRight=4;overflow=hidden;rotatable=0;points=[[0,0.5],[1,0.5]];portConstraint=eastwest;whiteSpace=wrap;html=1;" vertex="1" parent="QRgpXw_hNwnxMptsKGu3-55">
          <mxGeometry y="60" width="130" height="26" as="geometry" />
        </mxCell>
        <mxCell id="QRgpXw_hNwnxMptsKGu3-59" value="&amp;nbsp;+ Price()" style="text;strokeColor=none;fillColor=none;align=left;verticalAlign=top;spacingLeft=4;spacingRight=4;overflow=hidden;rotatable=0;points=[[0,0.5],[1,0.5]];portConstraint=eastwest;whiteSpace=wrap;html=1;" vertex="1" parent="QRgpXw_hNwnxMptsKGu3-55">
          <mxGeometry y="86" width="130" height="26" as="geometry" />
        </mxCell>
        <mxCell id="QRgpXw_hNwnxMptsKGu3-60" style="edgeStyle=orthogonalEdgeStyle;rounded=0;orthogonalLoop=1;jettySize=auto;html=1;exitX=0.5;exitY=0;exitDx=0;exitDy=0;entryX=0.476;entryY=0.981;entryDx=0;entryDy=0;entryPerimeter=0;" edge="1" parent="1" source="QRgpXw_hNwnxMptsKGu3-55" target="QRgpXw_hNwnxMptsKGu3-52">
          <mxGeometry relative="1" as="geometry" />
        </mxCell>
        <mxCell id="QRgpXw_hNwnxMptsKGu3-61" value="inherits" style="edgeLabel;html=1;align=center;verticalAlign=middle;resizable=0;points=[];" vertex="1" connectable="0" parent="QRgpXw_hNwnxMptsKGu3-60">
          <mxGeometry x="0.032" relative="1" as="geometry">
            <mxPoint x="1" as="offset" />
          </mxGeometry>
        </mxCell>
        <mxCell id="QRgpXw_hNwnxMptsKGu3-62" value="Pepsi" style="swimlane;fontStyle=1;align=center;verticalAlign=top;childLayout=stackLayout;horizontal=1;startSize=26;horizontalStack=0;resizeParent=1;resizeParentMax=0;resizeLast=0;collapsible=1;marginBottom=0;whiteSpace=wrap;html=1;fillColor=#E6E6E6;" vertex="1" parent="1">
          <mxGeometry x="270" y="760" width="131" height="112" as="geometry" />
        </mxCell>
        <mxCell id="QRgpXw_hNwnxMptsKGu3-63" value="" style="line;strokeWidth=1;fillColor=none;align=left;verticalAlign=middle;spacingTop=-1;spacingLeft=3;spacingRight=3;rotatable=0;labelPosition=right;points=[];portConstraint=eastwest;strokeColor=inherit;" vertex="1" parent="QRgpXw_hNwnxMptsKGu3-62">
          <mxGeometry y="26" width="131" height="8" as="geometry" />
        </mxCell>
        <mxCell id="QRgpXw_hNwnxMptsKGu3-64" value="+ Name();" style="text;strokeColor=none;fillColor=none;align=left;verticalAlign=top;spacingLeft=4;spacingRight=4;overflow=hidden;rotatable=0;points=[[0,0.5],[1,0.5]];portConstraint=eastwest;whiteSpace=wrap;html=1;" vertex="1" parent="QRgpXw_hNwnxMptsKGu3-62">
          <mxGeometry y="34" width="131" height="26" as="geometry" />
        </mxCell>
        <mxCell id="QRgpXw_hNwnxMptsKGu3-65" value="&amp;nbsp;+ IPacking Packing()" style="text;strokeColor=none;fillColor=none;align=left;verticalAlign=top;spacingLeft=4;spacingRight=4;overflow=hidden;rotatable=0;points=[[0,0.5],[1,0.5]];portConstraint=eastwest;whiteSpace=wrap;html=1;" vertex="1" parent="QRgpXw_hNwnxMptsKGu3-62">
          <mxGeometry y="60" width="131" height="26" as="geometry" />
        </mxCell>
        <mxCell id="QRgpXw_hNwnxMptsKGu3-66" value="&amp;nbsp;+ Price()" style="text;strokeColor=none;fillColor=none;align=left;verticalAlign=top;spacingLeft=4;spacingRight=4;overflow=hidden;rotatable=0;points=[[0,0.5],[1,0.5]];portConstraint=eastwest;whiteSpace=wrap;html=1;" vertex="1" parent="QRgpXw_hNwnxMptsKGu3-62">
          <mxGeometry y="86" width="131" height="26" as="geometry" />
        </mxCell>
        <mxCell id="QRgpXw_hNwnxMptsKGu3-67" value="inherits" style="edgeLabel;html=1;align=center;verticalAlign=middle;resizable=0;points=[];" vertex="1" connectable="0" parent="1">
          <mxGeometry x="221" y="736" as="geometry" />
        </mxCell>
        <mxCell id="QRgpXw_hNwnxMptsKGu3-68" style="edgeStyle=orthogonalEdgeStyle;rounded=0;orthogonalLoop=1;jettySize=auto;html=1;exitX=0.5;exitY=0;exitDx=0;exitDy=0;entryX=0.628;entryY=1.019;entryDx=0;entryDy=0;entryPerimeter=0;" edge="1" parent="1" source="QRgpXw_hNwnxMptsKGu3-62" target="QRgpXw_hNwnxMptsKGu3-52">
          <mxGeometry relative="1" as="geometry">
            <mxPoint x="235" y="770" as="sourcePoint" />
            <mxPoint x="209" y="702" as="targetPoint" />
          </mxGeometry>
        </mxCell>
        <mxCell id="QRgpXw_hNwnxMptsKGu3-70" value="Wrapper" style="swimlane;fontStyle=1;align=center;verticalAlign=top;childLayout=stackLayout;horizontal=1;startSize=26;horizontalStack=0;resizeParent=1;resizeParentMax=0;resizeLast=0;collapsible=1;marginBottom=0;whiteSpace=wrap;html=1;fillColor=#E6E6E6;" vertex="1" parent="1">
          <mxGeometry x="137" y="1070" width="90" height="60" as="geometry" />
        </mxCell>
        <mxCell id="QRgpXw_hNwnxMptsKGu3-71" value="" style="line;strokeWidth=1;fillColor=none;align=left;verticalAlign=middle;spacingTop=-1;spacingLeft=3;spacingRight=3;rotatable=0;labelPosition=right;points=[];portConstraint=eastwest;strokeColor=inherit;" vertex="1" parent="QRgpXw_hNwnxMptsKGu3-70">
          <mxGeometry y="26" width="90" height="8" as="geometry" />
        </mxCell>
        <mxCell id="QRgpXw_hNwnxMptsKGu3-72" value="+ Pack()" style="text;strokeColor=none;fillColor=none;align=left;verticalAlign=top;spacingLeft=4;spacingRight=4;overflow=hidden;rotatable=0;points=[[0,0.5],[1,0.5]];portConstraint=eastwest;whiteSpace=wrap;html=1;" vertex="1" parent="QRgpXw_hNwnxMptsKGu3-70">
          <mxGeometry y="34" width="90" height="26" as="geometry" />
        </mxCell>
        <mxCell id="QRgpXw_hNwnxMptsKGu3-73" style="edgeStyle=orthogonalEdgeStyle;rounded=0;orthogonalLoop=1;jettySize=auto;html=1;exitX=0.5;exitY=0;exitDx=0;exitDy=0;entryX=1;entryY=0.25;entryDx=0;entryDy=0;endArrow=block;endFill=0;" edge="1" parent="1" source="QRgpXw_hNwnxMptsKGu3-70" target="QRgpXw_hNwnxMptsKGu3-23">
          <mxGeometry relative="1" as="geometry">
            <mxPoint x="75" y="1116" as="sourcePoint" />
            <mxPoint x="71" y="1021" as="targetPoint" />
          </mxGeometry>
        </mxCell>
        <mxCell id="QRgpXw_hNwnxMptsKGu3-74" value="implements" style="edgeLabel;html=1;align=center;verticalAlign=middle;resizable=0;points=[];" vertex="1" connectable="0" parent="QRgpXw_hNwnxMptsKGu3-73">
          <mxGeometry x="-0.0326" relative="1" as="geometry">
            <mxPoint as="offset" />
          </mxGeometry>
        </mxCell>
        <mxCell id="QRgpXw_hNwnxMptsKGu3-75" value="VegBurger" style="swimlane;fontStyle=1;align=center;verticalAlign=top;childLayout=stackLayout;horizontal=1;startSize=26;horizontalStack=0;resizeParent=1;resizeParentMax=0;resizeLast=0;collapsible=1;marginBottom=0;whiteSpace=wrap;html=1;fillColor=#E6E6E6;" vertex="1" parent="1">
          <mxGeometry x="-60" y="760" width="140" height="112" as="geometry" />
        </mxCell>
        <mxCell id="QRgpXw_hNwnxMptsKGu3-76" value="" style="line;strokeWidth=1;fillColor=none;align=left;verticalAlign=middle;spacingTop=-1;spacingLeft=3;spacingRight=3;rotatable=0;labelPosition=right;points=[];portConstraint=eastwest;strokeColor=inherit;" vertex="1" parent="QRgpXw_hNwnxMptsKGu3-75">
          <mxGeometry y="26" width="140" height="8" as="geometry" />
        </mxCell>
        <mxCell id="QRgpXw_hNwnxMptsKGu3-77" value="+ Name();" style="text;strokeColor=none;fillColor=none;align=left;verticalAlign=top;spacingLeft=4;spacingRight=4;overflow=hidden;rotatable=0;points=[[0,0.5],[1,0.5]];portConstraint=eastwest;whiteSpace=wrap;html=1;" vertex="1" parent="QRgpXw_hNwnxMptsKGu3-75">
          <mxGeometry y="34" width="140" height="26" as="geometry" />
        </mxCell>
        <mxCell id="QRgpXw_hNwnxMptsKGu3-78" value="&amp;nbsp;+ IPacking Packing()" style="text;strokeColor=none;fillColor=none;align=left;verticalAlign=top;spacingLeft=4;spacingRight=4;overflow=hidden;rotatable=0;points=[[0,0.5],[1,0.5]];portConstraint=eastwest;whiteSpace=wrap;html=1;" vertex="1" parent="QRgpXw_hNwnxMptsKGu3-75">
          <mxGeometry y="60" width="140" height="26" as="geometry" />
        </mxCell>
        <mxCell id="QRgpXw_hNwnxMptsKGu3-79" value="&amp;nbsp;+ Price()" style="text;strokeColor=none;fillColor=none;align=left;verticalAlign=top;spacingLeft=4;spacingRight=4;overflow=hidden;rotatable=0;points=[[0,0.5],[1,0.5]];portConstraint=eastwest;whiteSpace=wrap;html=1;" vertex="1" parent="QRgpXw_hNwnxMptsKGu3-75">
          <mxGeometry y="86" width="140" height="26" as="geometry" />
        </mxCell>
        <mxCell id="QRgpXw_hNwnxMptsKGu3-80" style="edgeStyle=orthogonalEdgeStyle;rounded=0;orthogonalLoop=1;jettySize=auto;html=1;exitX=0.5;exitY=0;exitDx=0;exitDy=0;entryX=0.547;entryY=1.038;entryDx=0;entryDy=0;entryPerimeter=0;endArrow=classic;endFill=1;" edge="1" parent="1" source="QRgpXw_hNwnxMptsKGu3-75" target="QRgpXw_hNwnxMptsKGu3-37">
          <mxGeometry relative="1" as="geometry">
            <mxPoint x="-130" y="770" as="sourcePoint" />
            <mxPoint x="-72" y="702" as="targetPoint" />
          </mxGeometry>
        </mxCell>
        <mxCell id="QRgpXw_hNwnxMptsKGu3-81" value="inherits" style="edgeLabel;html=1;align=center;verticalAlign=middle;resizable=0;points=[];" vertex="1" connectable="0" parent="QRgpXw_hNwnxMptsKGu3-80">
          <mxGeometry x="0.0636" y="2" relative="1" as="geometry">
            <mxPoint as="offset" />
          </mxGeometry>
        </mxCell>
        <mxCell id="QRgpXw_hNwnxMptsKGu3-82" style="edgeStyle=orthogonalEdgeStyle;rounded=0;orthogonalLoop=1;jettySize=auto;html=1;exitX=0;exitY=0.5;exitDx=0;exitDy=0;entryX=0;entryY=0.25;entryDx=0;entryDy=0;" edge="1" parent="1" source="QRgpXw_hNwnxMptsKGu3-44" target="QRgpXw_hNwnxMptsKGu3-23">
          <mxGeometry relative="1" as="geometry" />
        </mxCell>
        <mxCell id="QRgpXw_hNwnxMptsKGu3-83" value="creates" style="edgeLabel;html=1;align=center;verticalAlign=middle;resizable=0;points=[];" vertex="1" connectable="0" parent="QRgpXw_hNwnxMptsKGu3-82">
          <mxGeometry x="0.078" y="3" relative="1" as="geometry">
            <mxPoint as="offset" />
          </mxGeometry>
        </mxCell>
        <mxCell id="QRgpXw_hNwnxMptsKGu3-84" style="edgeStyle=orthogonalEdgeStyle;rounded=0;orthogonalLoop=1;jettySize=auto;html=1;exitX=1;exitY=0.5;exitDx=0;exitDy=0;" edge="1" parent="1" source="QRgpXw_hNwnxMptsKGu3-78" target="QRgpXw_hNwnxMptsKGu3-23">
          <mxGeometry relative="1" as="geometry" />
        </mxCell>
        <mxCell id="QRgpXw_hNwnxMptsKGu3-85" value="creates" style="edgeLabel;html=1;align=center;verticalAlign=middle;resizable=0;points=[];" vertex="1" connectable="0" parent="QRgpXw_hNwnxMptsKGu3-84">
          <mxGeometry y="-2" relative="1" as="geometry">
            <mxPoint x="1" as="offset" />
          </mxGeometry>
        </mxCell>
        <mxCell id="QRgpXw_hNwnxMptsKGu3-86" style="edgeStyle=orthogonalEdgeStyle;rounded=0;orthogonalLoop=1;jettySize=auto;html=1;exitX=1;exitY=0.5;exitDx=0;exitDy=0;entryX=0.918;entryY=0.058;entryDx=0;entryDy=0;entryPerimeter=0;" edge="1" parent="1" source="QRgpXw_hNwnxMptsKGu3-58" target="QRgpXw_hNwnxMptsKGu3-23">
          <mxGeometry relative="1" as="geometry" />
        </mxCell>
        <mxCell id="QRgpXw_hNwnxMptsKGu3-87" value="creates" style="edgeLabel;html=1;align=center;verticalAlign=middle;resizable=0;points=[];" vertex="1" connectable="0" parent="QRgpXw_hNwnxMptsKGu3-86">
          <mxGeometry x="0.2873" relative="1" as="geometry">
            <mxPoint as="offset" />
          </mxGeometry>
        </mxCell>
        <mxCell id="QRgpXw_hNwnxMptsKGu3-88" style="edgeStyle=orthogonalEdgeStyle;rounded=0;orthogonalLoop=1;jettySize=auto;html=1;exitX=1;exitY=0.5;exitDx=0;exitDy=0;entryX=1;entryY=0;entryDx=0;entryDy=0;" edge="1" parent="1" source="QRgpXw_hNwnxMptsKGu3-65" target="QRgpXw_hNwnxMptsKGu3-23">
          <mxGeometry relative="1" as="geometry" />
        </mxCell>
        <mxCell id="QRgpXw_hNwnxMptsKGu3-92" value="Meal" style="swimlane;fontStyle=1;align=center;verticalAlign=top;childLayout=stackLayout;horizontal=1;startSize=26;horizontalStack=0;resizeParent=1;resizeParentMax=0;resizeLast=0;collapsible=1;marginBottom=0;whiteSpace=wrap;html=1;fillColor=#E6E6E6;" vertex="1" parent="1">
          <mxGeometry x="-40" y="120" width="230" height="138" as="geometry" />
        </mxCell>
        <mxCell id="QRgpXw_hNwnxMptsKGu3-93" value="" style="line;strokeWidth=1;fillColor=none;align=left;verticalAlign=middle;spacingTop=-1;spacingLeft=3;spacingRight=3;rotatable=0;labelPosition=right;points=[];portConstraint=eastwest;strokeColor=inherit;" vertex="1" parent="QRgpXw_hNwnxMptsKGu3-92">
          <mxGeometry y="26" width="230" height="8" as="geometry" />
        </mxCell>
        <mxCell id="QRgpXw_hNwnxMptsKGu3-94" value="List&amp;lt;IItem&amp;gt; items" style="text;strokeColor=none;fillColor=none;align=left;verticalAlign=top;spacingLeft=4;spacingRight=4;overflow=hidden;rotatable=0;points=[[0,0.5],[1,0.5]];portConstraint=eastwest;whiteSpace=wrap;html=1;" vertex="1" parent="QRgpXw_hNwnxMptsKGu3-92">
          <mxGeometry y="34" width="230" height="26" as="geometry" />
        </mxCell>
        <mxCell id="QRgpXw_hNwnxMptsKGu3-95" value="+&amp;nbsp;AddItem(IItem item)" style="text;strokeColor=none;fillColor=none;align=left;verticalAlign=top;spacingLeft=4;spacingRight=4;overflow=hidden;rotatable=0;points=[[0,0.5],[1,0.5]];portConstraint=eastwest;whiteSpace=wrap;html=1;" vertex="1" parent="QRgpXw_hNwnxMptsKGu3-92">
          <mxGeometry y="60" width="230" height="26" as="geometry" />
        </mxCell>
        <mxCell id="QRgpXw_hNwnxMptsKGu3-96" value="+ GetCost()" style="text;strokeColor=none;fillColor=none;align=left;verticalAlign=top;spacingLeft=4;spacingRight=4;overflow=hidden;rotatable=0;points=[[0,0.5],[1,0.5]];portConstraint=eastwest;whiteSpace=wrap;html=1;" vertex="1" parent="QRgpXw_hNwnxMptsKGu3-92">
          <mxGeometry y="86" width="230" height="26" as="geometry" />
        </mxCell>
        <mxCell id="QRgpXw_hNwnxMptsKGu3-97" value="+ ShowItems()" style="text;strokeColor=none;fillColor=none;align=left;verticalAlign=top;spacingLeft=4;spacingRight=4;overflow=hidden;rotatable=0;points=[[0,0.5],[1,0.5]];portConstraint=eastwest;whiteSpace=wrap;html=1;" vertex="1" parent="QRgpXw_hNwnxMptsKGu3-92">
          <mxGeometry y="112" width="230" height="26" as="geometry" />
        </mxCell>
        <mxCell id="QRgpXw_hNwnxMptsKGu3-99" style="edgeStyle=orthogonalEdgeStyle;rounded=0;orthogonalLoop=1;jettySize=auto;html=1;exitX=1;exitY=0.5;exitDx=0;exitDy=0;entryX=0;entryY=0.13;entryDx=0;entryDy=0;entryPerimeter=0;" edge="1" parent="1" source="QRgpXw_hNwnxMptsKGu3-6" target="QRgpXw_hNwnxMptsKGu3-92">
          <mxGeometry relative="1" as="geometry" />
        </mxCell>
      </root>
    </mxGraphModel>
  </diagram>
</mxfile>
